<svg xmlns="http://www.w3.org/2000/svg" width="106" height="16" viewBox="0 0 106 16"><g><g><path fill="#fff" d="M95.99 11.227zm0 0c.314.002.619-.159.747-.237l1.858-1.72 6.044 4.824-4.625-6.137 5.586-5.169v11.235a1.2 1.2 0 0 1-1.2 1.2H87.6a1.2 1.2 0 0 1-1.2-1.2V2.816l5.519 5.092-4.542 6.193L93.5 9.366l1.77 1.635c.356.266.731.226.72.226zm.773-.253c.048-.031.054-.04 0 0zm-.769-2.077L86.4 2.023a1.2 1.2 0 0 1 1.2-1.2h16.8a1.2 1.2 0 0 1 1.2 1.2z"/></g><g><path fill="#f2f2f2" d="M58 3.091v9.817a3.095 3.095 0 0 1-3.092 3.091h-9.816A3.095 3.095 0 0 1 42 12.908V3.09A3.095 3.095 0 0 1 45.092 0h9.816A3.095 3.095 0 0 1 58 3.091zm-4.564-1.24l.01 2.712 2.702-.009V1.842l-.353.002zM47.184 8A2.82 2.82 0 0 0 50 10.815 2.82 2.82 0 0 0 52.816 8c0-.614-.2-1.18-.533-1.643A2.814 2.814 0 0 0 50 5.183c-.94 0-1.771.465-2.284 1.174A2.802 2.802 0 0 0 47.184 8zm9.257-1.643h-2.39c.207.508.324 1.062.324 1.643A4.38 4.38 0 0 1 50 12.374 4.38 4.38 0 0 1 45.625 8c0-.581.116-1.135.322-1.643H43.56v6.55c0 .846.687 1.534 1.533 1.534h9.816c.845 0 1.533-.688 1.533-1.533z"/></g><g><path fill="#fff" d="M3.267.365c.087-.053.182-.099.286-.137.095-.038.202-.072.322-.103L4.53 0h.43l3.028.229H8l-.31 2.7h-.012l-1.67-.172h-.047l-.167.022-.06.023-.19.092a.155.155 0 0 0-.096.057l-.143.149a.592.592 0 0 0-.083.137.84.84 0 0 0-.06.149c-.016.053-.028.11-.035.171-.009.053-.012.11-.012.172l.023 1.692 2.456.024-.357 2.676-2.122.08v7.788l-.012.011H1.788V8.131H0V5.444h1.717V5.42l.012-.034.06-2.87.023-.16v-.08l.024-.08a.613.613 0 0 1 .048-.173.519.519 0 0 1 .071-.148c.032-.114.076-.217.131-.309.048-.099.108-.194.179-.285.056-.085.123-.164.203-.24.071-.085.147-.161.226-.23V.8z"/></g></g></svg>