<svg xmlns="http://www.w3.org/2000/svg" width="30" height="30" viewBox="0 0 30 30"><g><g><path fill="#00b0ff" d="M29.4 6.164v17.67a5.571 5.571 0 0 1-5.566 5.565H6.166A5.571 5.571 0 0 1 .6 23.834V6.164A5.571 5.571 0 0 1 6.166.6h17.668A5.571 5.571 0 0 1 29.4 6.164zm-8.215-2.232l.017 4.881 4.865-.016v-4.88l-.637.002zM9.931 14.999A5.074 5.074 0 0 0 15 20.067 5.076 5.076 0 0 0 20.07 15a5.04 5.04 0 0 0-.96-2.956A5.065 5.065 0 0 0 15 9.93a5.065 5.065 0 0 0-4.11 2.114A5.042 5.042 0 0 0 9.93 15zm16.663-2.956h-4.3c.37.914.58 1.91.58 2.956 0 4.341-3.532 7.875-7.874 7.875-4.343 0-7.875-3.534-7.875-7.875 0-1.045.209-2.042.58-2.956h-4.3v11.79a2.762 2.762 0 0 0 2.76 2.76h17.669a2.762 2.762 0 0 0 2.76-2.76z"/></g></g></svg>