<svg xmlns="http://www.w3.org/2000/svg" width="54" height="14" viewBox="0 0 54 14"><g><g><path fill="#f7f7f7" d="M46.505 12.241L50.659 8H38.98A.99.99 0 0 1 38 7c0-.553.44-1 .98-1h11.676l-4.218-4.306a1.007 1.007 0 0 1-.274-.695c0-.552.438-1 .98-1 .264 0 .503.108.68.281l5.877 6c.185.182.3.437.3.72v.004c0 .283-.115.538-.3.72l-5.877 6-.003-.003a.965.965 0 0 1-.677.278.99.99 0 0 1-.98-1c0-.303.133-.574.342-.758z"/></g><g><path fill="#f7f7f7" d="M7.837 13a.99.99 0 0 1-.98 1 .965.965 0 0 1-.677-.279l-.003.003-5.877-6a1.007 1.007 0 0 1-.3-.72v-.002-.003c0-.282.115-.537.3-.72l5.877-6V.28a.967.967 0 0 1 .68-.28.99.99 0 0 1 .98 1c0 .27-.105.514-.275.694L3.344 6h11.677c.54 0 .98.447.98 1a.99.99 0 0 1-.98 1H3.34l4.154 4.241c.21.184.342.455.342.759z"/></g></g></svg>